<?xml version="1.0" ?><svg enable-background="new 0 0 128 128" id="Слой_1" version="1.1" viewBox="0 0 128 128" xml:space="preserve" xmlns="http://www.w3.org/2000/svg" xmlns:xlink="http://www.w3.org/1999/xlink"><g><g><path d="M39.9199219,75.3496094c-0.5302734,0-1.0400391-0.2099609-1.4101562-0.5795898    c-0.3798828-0.3803711-0.5898438-0.8901367-0.5898438-1.4204102c0-0.5297852,0.2099609-1.0395508,0.5898438-1.409668    c0.7402344-0.75,2.0698242-0.75,2.8198242,0c0.3803711,0.3701172,0.590332,0.8896484,0.590332,1.409668    c0,0.5302734-0.2099609,1.0400391-0.5800781,1.4101562C40.9599609,75.1396484,40.449707,75.3496094,39.9199219,75.3496094z" fill="#3399CC"/></g><g><path d="M39.9199219,82.6098633c-0.5302734,0-1.0400391-0.2202148-1.4101562-0.5898438    c-0.3798828-0.3701172-0.5898438-0.8901367-0.5898438-1.4101562c0-0.5302734,0.2099609-1.0498047,0.5898438-1.4199219    c0.7402344-0.7402344,2.0698242-0.7402344,2.8198242,0c0.3803711,0.3798828,0.590332,0.8896484,0.590332,1.4199219    c0,0.5200195-0.2099609,1.0400391-0.5800781,1.4101562C40.9599609,82.3896484,40.4399414,82.6098633,39.9199219,82.6098633z" fill="#3399CC"/></g><g><path d="M48.0795898,89.8598633c-0.5195312,0-1.0395508-0.2099609-1.409668-0.5800781    c-0.3701172-0.3798828-0.590332-0.8901367-0.590332-1.4199219c0-0.5200195,0.2202148-1.0400391,0.590332-1.4101562    c0.7397461-0.75,2.0800781-0.75,2.8300781,0c0.3696289,0.3701172,0.5795898,0.8901367,0.5795898,1.4101562    c0,0.5297852-0.2099609,1.0400391-0.5795898,1.4199219C49.1196289,89.6499023,48.6098633,89.8598633,48.0795898,89.8598633z" fill="#3399CC"/></g><g><path d="M39.9199219,89.8598633c-0.5302734,0-1.0400391-0.2099609-1.4101562-0.5800781    c-0.3798828-0.3798828-0.5898438-0.8901367-0.5898438-1.4199219c0-0.5200195,0.2099609-1.0400391,0.5898438-1.4101562    c0.7402344-0.75,2.0698242-0.75,2.8198242,0c0.3803711,0.3701172,0.590332,0.8901367,0.590332,1.4101562    c0,0.5297852-0.2099609,1.0400391-0.5800781,1.4101562C40.9599609,89.6499023,40.4399414,89.8598633,39.9199219,89.8598633z" fill="#3399CC"/></g><g><path d="M88.2226562,90.1689453H56.4960938c-1.1044922,0-2-0.8955078-2-2s0.8955078-2,2-2h29.7265625V41.8310547    H41.8842773v23.6171875c0,1.1044922-0.8955078,2-2,2s-2-0.8955078-2-2V39.8310547c0-1.1044922,0.8955078-2,2-2h48.3383789    c1.1044922,0,2,0.8955078,2,2v48.3378906C90.2226562,89.2734375,89.3271484,90.1689453,88.2226562,90.1689453z" fill="#3399CC"/></g></g></svg>