<?xml version="1.0" ?><svg enable-background="new 0 0 128 128" id="Слой_1" version="1.1" viewBox="0 0 128 128" xml:space="preserve" xmlns="http://www.w3.org/2000/svg" xmlns:xlink="http://www.w3.org/1999/xlink"><g><g><path d="M48.0898438,89.3496094c-0.5297852,0-1.0498047-0.2099609-1.4199219-0.5898438    c-0.3701172-0.3701172-0.5800781-0.8798828-0.5800781-1.4101562c0-0.5297852,0.2099609-1.0395508,0.5800781-1.409668    c0.75-0.75,2.0898438-0.75,2.8300781,0c0.3696289,0.3701172,0.5898438,0.8896484,0.5898438,1.409668    c0,0.5302734-0.2202148,1.0400391-0.5898438,1.4101562C49.1298828,89.1396484,48.6098633,89.3496094,48.0898438,89.3496094z" fill="#3399CC"/></g><g><path d="M55.065918,86.3505859c-0.6796875,0-1.3427734-0.3466797-1.7172852-0.972168    c-0.5678711-0.9477539-0.2602539-2.1757812,0.6870117-2.7436523l29.628418-17.7578125L42.8720703,40.1962891    l-0.0185547,27.7302246C42.8525391,69.0305176,41.9575195,70,40.8535156,70c-0.0004883,0-0.0009766,0-0.0014648,0    c-1.1044922,0-1.9995117-0.9719238-1.9985352-2.076416l0.0209961-31.2376709    c0.0004883-0.7216797,0.3896484-1.4054565,1.0185547-1.7599487c0.628418-0.3544922,1.3994141-0.3511658,2.0166016,0.0223694    l46.6665039,28.2306671c0.6000977,0.362793,0.9663086,1.0113297,0.9648438,1.7129898    c-0.0014648,0.7011719-0.3701172,1.3494186-0.9716797,1.7097702L56.0922852,86.0660172    C55.7700195,86.2588882,55.4155273,86.3505859,55.065918,86.3505859z" fill="#3399CC"/></g><g><path d="M40.4599609,76.4897461c-0.5302734,0-1.0400391-0.2099609-1.4199219-0.5800781    c-0.3701172-0.3798828-0.5800781-0.8896484-0.5800781-1.4199219c0-0.5200195,0.2099609-1.0400391,0.5800781-1.4101562    c0.75-0.75,2.0898438-0.75,2.8295898,0c0.3803711,0.3701172,0.590332,0.8901367,0.590332,1.4101562    c0,0.5302734-0.2099609,1.0400391-0.590332,1.4199219C41.5,76.2797852,40.9897461,76.4897461,40.4599609,76.4897461z" fill="#3399CC"/></g><g><path d="M40.4599609,84.3496094c-0.5200195,0-1.0400391-0.2099609-1.4199219-0.5898438    c-0.3701172-0.3701172-0.5800781-0.8901367-0.5800781-1.4101562s0.2099609-1.0395508,0.5800781-1.409668    c0.75-0.75,2.0898438-0.75,2.8295898,0c0.3803711,0.3701172,0.590332,0.8798828,0.590332,1.409668    c0,0.5302734-0.2099609,1.0400391-0.590332,1.4101562C41.5,84.1396484,40.9799805,84.3496094,40.4599609,84.3496094z" fill="#3399CC"/></g><g><path d="M40.4599609,93.3496094c-0.5200195,0-1.0400391-0.2099609-1.4101562-0.5795898    c-0.3798828-0.3803711-0.5898438-0.8901367-0.5898438-1.4204102c0-0.5297852,0.2099609-1.0395508,0.5898438-1.409668    c0.7402344-0.75,2.0800781-0.75,2.8198242,0c0.3803711,0.3701172,0.590332,0.8896484,0.590332,1.409668    S42.25,92.3896484,41.8798828,92.7597656C41.5,93.1396484,40.9799805,93.3496094,40.4599609,93.3496094z" fill="#3399CC"/></g></g></svg>